# xmcd CD database file
#
# Track frame offsets:
#	150
#	13935
#	41740
#	64924
#	87189
#	107373
#	129269
#	151281
#	165903
#	188687
#	209314
#	229241
#	247129
#	276421
#	296415
#	318617
#
# Disc length: 4559 seconds
#
# Revision: 3
# Processed by: cddbd v1.5.1PL0 Copyright (c) Steve Scherf et al.
# Submitted via: CDex 1.51
#
DISCID=df11cd10
DTITLE=darkgiank@gmail.com - CD Personalizado
DYEAR=2005
DGENRE=Salsa
TTITLE0=El Gran Combo - Ojos Chinos (Vivo)
TTITLE1=Adalberto Alvarez - Y Tu Que Quieres Que Te Den
TTITLE2=Basilos - Cuestion de Madera
TTITLE3=Edgar Joel - Hechizo de luna
TTITLE4=artist - compañera mia
TTITLE5=el gran combo - se nos perdio el amor
TTITLE6=EL GRAN COMBO DE PUERTO RICO - AMOR PERFECTO
TTITLE7=Iman - Desde Que Te Fuiste
TTITLE8=Jerry Rivera - Amores Como El Nuestro (salsa)
TTITLE9=Jerry Rivera - Nada Sin Ti
TTITLE10=Olga Tanon - Basta Ya
TTITLE11=Victor Manuelle - La dueña de mi
TTITLE12=Gilberto Santa Rosa - No Pense Enamorarme Otra Vez
TTITLE13=Victor Manuelle - Hay Cariño
TTITLE14=Victor Manuel - Que habria Sido De mi
TTITLE15=Victor Manuelle Asi Es La Mujer - Victor Manuelle Asi Es La Mujer
EXTD=YEAR: 2005
EXTT0=
EXTT1=
EXTT2=
EXTT3=
EXTT4=
EXTT5=
EXTT6=
EXTT7=
EXTT8=
EXTT9=
EXTT10=
EXTT11=
EXTT12=
EXTT13=
EXTT14=
EXTT15=
PLAYORDER=
